<mxfile host="app.diagrams.net" agent="Mozilla/5.0 (Windows NT 10.0; Win64; x64) AppleWebKit/537.36 (KHTML, like Gecko) Chrome/136.0.0.0 Safari/537.36" version="26.1.1">
  <diagram name="Page-1" id="yekQlnsRyJYRIXM38nA7">
    <mxGraphModel dx="2950" dy="1753" grid="1" gridSize="10" guides="1" tooltips="1" connect="1" arrows="1" fold="1" page="0" pageScale="1" pageWidth="827" pageHeight="1169" math="0" shadow="0">
      <root>
        <object label="" id="0">
          <mxCell />
        </object>
        <mxCell id="1" parent="0" />
        <mxCell id="bVYxe_pStq7JfoqcZvOK-1" value="Patient" style="shape=umlActor;verticalLabelPosition=bottom;verticalAlign=top;html=1;outlineConnect=0;" vertex="1" parent="1">
          <mxGeometry x="-1110" y="-350" width="30" height="60" as="geometry" />
        </mxCell>
        <mxCell id="bVYxe_pStq7JfoqcZvOK-2" value="Register" style="swimlane;fontStyle=0;childLayout=stackLayout;horizontal=1;startSize=30;horizontalStack=0;resizeParent=1;resizeParentMax=0;resizeLast=0;collapsible=1;marginBottom=0;whiteSpace=wrap;html=1;fillColor=#dae8fc;strokeColor=#6c8ebf;" vertex="1" parent="1">
          <mxGeometry x="-910" y="-220" width="140" height="210" as="geometry">
            <mxRectangle x="-902" y="-39" width="90" height="30" as="alternateBounds" />
          </mxGeometry>
        </mxCell>
        <mxCell id="bVYxe_pStq7JfoqcZvOK-3" value="FullName" style="text;strokeColor=none;fillColor=none;align=left;verticalAlign=middle;spacingLeft=4;spacingRight=4;overflow=hidden;points=[[0,0.5],[1,0.5]];portConstraint=eastwest;rotatable=0;whiteSpace=wrap;html=1;" vertex="1" parent="bVYxe_pStq7JfoqcZvOK-2">
          <mxGeometry y="30" width="140" height="30" as="geometry" />
        </mxCell>
        <mxCell id="bVYxe_pStq7JfoqcZvOK-4" value="DOB" style="text;strokeColor=none;fillColor=none;align=left;verticalAlign=middle;spacingLeft=4;spacingRight=4;overflow=hidden;points=[[0,0.5],[1,0.5]];portConstraint=eastwest;rotatable=0;whiteSpace=wrap;html=1;" vertex="1" parent="bVYxe_pStq7JfoqcZvOK-2">
          <mxGeometry y="60" width="140" height="30" as="geometry" />
        </mxCell>
        <mxCell id="bVYxe_pStq7JfoqcZvOK-5" value="Gender" style="text;strokeColor=none;fillColor=none;align=left;verticalAlign=middle;spacingLeft=4;spacingRight=4;overflow=hidden;points=[[0,0.5],[1,0.5]];portConstraint=eastwest;rotatable=0;whiteSpace=wrap;html=1;" vertex="1" parent="bVYxe_pStq7JfoqcZvOK-2">
          <mxGeometry y="90" width="140" height="30" as="geometry" />
        </mxCell>
        <mxCell id="bVYxe_pStq7JfoqcZvOK-6" value="Contact" style="text;strokeColor=none;fillColor=none;align=left;verticalAlign=middle;spacingLeft=4;spacingRight=4;overflow=hidden;points=[[0,0.5],[1,0.5]];portConstraint=eastwest;rotatable=0;whiteSpace=wrap;html=1;" vertex="1" parent="bVYxe_pStq7JfoqcZvOK-2">
          <mxGeometry y="120" width="140" height="30" as="geometry" />
        </mxCell>
        <mxCell id="bVYxe_pStq7JfoqcZvOK-7" value="email" style="text;strokeColor=none;fillColor=none;align=left;verticalAlign=middle;spacingLeft=4;spacingRight=4;overflow=hidden;points=[[0,0.5],[1,0.5]];portConstraint=eastwest;rotatable=0;whiteSpace=wrap;html=1;" vertex="1" parent="bVYxe_pStq7JfoqcZvOK-2">
          <mxGeometry y="150" width="140" height="30" as="geometry" />
        </mxCell>
        <mxCell id="bVYxe_pStq7JfoqcZvOK-8" value="Password" style="text;strokeColor=none;fillColor=none;align=left;verticalAlign=middle;spacingLeft=4;spacingRight=4;overflow=hidden;points=[[0,0.5],[1,0.5]];portConstraint=eastwest;rotatable=0;whiteSpace=wrap;html=1;" vertex="1" parent="bVYxe_pStq7JfoqcZvOK-2">
          <mxGeometry y="180" width="140" height="30" as="geometry" />
        </mxCell>
        <mxCell id="bVYxe_pStq7JfoqcZvOK-9" value="" style="endArrow=classic;html=1;rounded=0;fontSize=12;startSize=8;endSize=8;curved=1;entryX=0;entryY=0.5;entryDx=0;entryDy=0;exitX=1;exitY=0.3333333333333333;exitDx=0;exitDy=0;exitPerimeter=0;" edge="1" parent="1" source="bVYxe_pStq7JfoqcZvOK-1" target="bVYxe_pStq7JfoqcZvOK-2">
          <mxGeometry width="50" height="50" relative="1" as="geometry">
            <mxPoint x="-585" y="-134" as="sourcePoint" />
            <mxPoint x="-375" y="-104" as="targetPoint" />
          </mxGeometry>
        </mxCell>
        <mxCell id="bVYxe_pStq7JfoqcZvOK-10" value="" style="endArrow=classic;html=1;rounded=0;fontSize=12;startSize=8;endSize=8;curved=1;exitX=1;exitY=0.3333333333333333;exitDx=0;exitDy=0;exitPerimeter=0;entryX=0;entryY=0.25;entryDx=0;entryDy=0;" edge="1" parent="1" source="bVYxe_pStq7JfoqcZvOK-1" target="bVYxe_pStq7JfoqcZvOK-11">
          <mxGeometry width="50" height="50" relative="1" as="geometry">
            <mxPoint x="-425" y="-54" as="sourcePoint" />
            <mxPoint x="-515" y="-164" as="targetPoint" />
          </mxGeometry>
        </mxCell>
        <mxCell id="bVYxe_pStq7JfoqcZvOK-11" value="Login" style="swimlane;fontStyle=0;childLayout=stackLayout;horizontal=1;startSize=30;horizontalStack=0;resizeParent=1;resizeParentMax=0;resizeLast=0;collapsible=1;marginBottom=0;whiteSpace=wrap;html=1;fillColor=#dae8fc;strokeColor=#6c8ebf;" vertex="1" parent="1">
          <mxGeometry x="-910" y="-350" width="140" height="90" as="geometry">
            <mxRectangle x="-910" y="-350" width="90" height="30" as="alternateBounds" />
          </mxGeometry>
        </mxCell>
        <mxCell id="bVYxe_pStq7JfoqcZvOK-12" value="email" style="text;strokeColor=none;fillColor=none;align=left;verticalAlign=middle;spacingLeft=4;spacingRight=4;overflow=hidden;points=[[0,0.5],[1,0.5]];portConstraint=eastwest;rotatable=0;whiteSpace=wrap;html=1;" vertex="1" parent="bVYxe_pStq7JfoqcZvOK-11">
          <mxGeometry y="30" width="140" height="30" as="geometry" />
        </mxCell>
        <mxCell id="bVYxe_pStq7JfoqcZvOK-13" value="Password" style="text;strokeColor=none;fillColor=none;align=left;verticalAlign=middle;spacingLeft=4;spacingRight=4;overflow=hidden;points=[[0,0.5],[1,0.5]];portConstraint=eastwest;rotatable=0;whiteSpace=wrap;html=1;" vertex="1" parent="bVYxe_pStq7JfoqcZvOK-11">
          <mxGeometry y="60" width="140" height="30" as="geometry" />
        </mxCell>
        <mxCell id="bVYxe_pStq7JfoqcZvOK-14" value="" style="endArrow=classic;html=1;rounded=0;fontSize=12;startSize=8;endSize=8;curved=1;exitX=1.001;exitY=0.163;exitDx=0;exitDy=0;entryX=0;entryY=0.25;entryDx=0;entryDy=0;exitPerimeter=0;" edge="1" parent="1" source="bVYxe_pStq7JfoqcZvOK-11" target="bVYxe_pStq7JfoqcZvOK-16">
          <mxGeometry width="50" height="50" relative="1" as="geometry">
            <mxPoint x="-700" y="-60" as="sourcePoint" />
            <mxPoint x="-650" y="-150" as="targetPoint" />
          </mxGeometry>
        </mxCell>
        <mxCell id="bVYxe_pStq7JfoqcZvOK-15" value="" style="endArrow=classic;html=1;rounded=0;fontSize=12;startSize=8;endSize=8;curved=1;exitX=1;exitY=0.5;exitDx=0;exitDy=0;entryX=0;entryY=0.75;entryDx=0;entryDy=0;" edge="1" parent="1" source="bVYxe_pStq7JfoqcZvOK-5" target="bVYxe_pStq7JfoqcZvOK-16">
          <mxGeometry width="50" height="50" relative="1" as="geometry">
            <mxPoint x="-700" y="-60" as="sourcePoint" />
            <mxPoint x="-650" y="-110" as="targetPoint" />
          </mxGeometry>
        </mxCell>
        <mxCell id="bVYxe_pStq7JfoqcZvOK-16" value="Dashboard" style="rounded=1;whiteSpace=wrap;html=1;fillColor=light-dark(#FFFFFF,#660000);" vertex="1" parent="1">
          <mxGeometry x="-600" y="-350" width="85" height="58" as="geometry" />
        </mxCell>
        <mxCell id="bVYxe_pStq7JfoqcZvOK-20" value="" style="endArrow=classic;html=1;rounded=0;fontSize=12;startSize=8;endSize=8;curved=1;entryX=-0.004;entryY=0.054;entryDx=0;entryDy=0;entryPerimeter=0;" edge="1" parent="1" source="bVYxe_pStq7JfoqcZvOK-43" target="bVYxe_pStq7JfoqcZvOK-21">
          <mxGeometry width="50" height="50" relative="1" as="geometry">
            <mxPoint x="-552.5" y="-270" as="sourcePoint" />
            <mxPoint x="-440" y="-269" as="targetPoint" />
          </mxGeometry>
        </mxCell>
        <mxCell id="bVYxe_pStq7JfoqcZvOK-21" value="Manage Personal Info" style="swimlane;fontStyle=0;childLayout=stackLayout;horizontal=1;startSize=30;horizontalStack=0;resizeParent=1;resizeParentMax=0;resizeLast=0;collapsible=1;marginBottom=0;whiteSpace=wrap;html=1;fillColor=#f8cecc;strokeColor=#b85450;" vertex="1" parent="1">
          <mxGeometry x="-400" y="-280" width="160" height="210" as="geometry">
            <mxRectangle x="-440" y="-90" width="160" height="30" as="alternateBounds" />
          </mxGeometry>
        </mxCell>
        <mxCell id="bVYxe_pStq7JfoqcZvOK-22" value="Name" style="text;strokeColor=none;fillColor=none;align=left;verticalAlign=middle;spacingLeft=4;spacingRight=4;overflow=hidden;points=[[0,0.5],[1,0.5]];portConstraint=eastwest;rotatable=0;whiteSpace=wrap;html=1;" vertex="1" parent="bVYxe_pStq7JfoqcZvOK-21">
          <mxGeometry y="30" width="160" height="30" as="geometry" />
        </mxCell>
        <mxCell id="bVYxe_pStq7JfoqcZvOK-23" value="DOB" style="text;strokeColor=none;fillColor=none;align=left;verticalAlign=middle;spacingLeft=4;spacingRight=4;overflow=hidden;points=[[0,0.5],[1,0.5]];portConstraint=eastwest;rotatable=0;whiteSpace=wrap;html=1;" vertex="1" parent="bVYxe_pStq7JfoqcZvOK-21">
          <mxGeometry y="60" width="160" height="30" as="geometry" />
        </mxCell>
        <mxCell id="bVYxe_pStq7JfoqcZvOK-24" value="Gender" style="text;strokeColor=none;fillColor=none;align=left;verticalAlign=middle;spacingLeft=4;spacingRight=4;overflow=hidden;points=[[0,0.5],[1,0.5]];portConstraint=eastwest;rotatable=0;whiteSpace=wrap;html=1;" vertex="1" parent="bVYxe_pStq7JfoqcZvOK-21">
          <mxGeometry y="90" width="160" height="30" as="geometry" />
        </mxCell>
        <mxCell id="bVYxe_pStq7JfoqcZvOK-25" value="Contact" style="text;strokeColor=none;fillColor=none;align=left;verticalAlign=middle;spacingLeft=4;spacingRight=4;overflow=hidden;points=[[0,0.5],[1,0.5]];portConstraint=eastwest;rotatable=0;whiteSpace=wrap;html=1;" vertex="1" parent="bVYxe_pStq7JfoqcZvOK-21">
          <mxGeometry y="120" width="160" height="30" as="geometry" />
        </mxCell>
        <mxCell id="bVYxe_pStq7JfoqcZvOK-26" value="email" style="text;strokeColor=none;fillColor=none;align=left;verticalAlign=middle;spacingLeft=4;spacingRight=4;overflow=hidden;points=[[0,0.5],[1,0.5]];portConstraint=eastwest;rotatable=0;whiteSpace=wrap;html=1;" vertex="1" parent="bVYxe_pStq7JfoqcZvOK-21">
          <mxGeometry y="150" width="160" height="30" as="geometry" />
        </mxCell>
        <mxCell id="bVYxe_pStq7JfoqcZvOK-27" value="Password" style="text;strokeColor=none;fillColor=none;align=left;verticalAlign=middle;spacingLeft=4;spacingRight=4;overflow=hidden;points=[[0,0.5],[1,0.5]];portConstraint=eastwest;rotatable=0;whiteSpace=wrap;html=1;" vertex="1" parent="bVYxe_pStq7JfoqcZvOK-21">
          <mxGeometry y="180" width="160" height="30" as="geometry" />
        </mxCell>
        <mxCell id="bVYxe_pStq7JfoqcZvOK-43" value="" style="line;strokeWidth=4;direction=south;html=1;perimeter=backbonePerimeter;points=[];outlineConnect=0;" vertex="1" parent="1">
          <mxGeometry x="-562.5" y="-290" width="10" height="410" as="geometry" />
        </mxCell>
        <mxCell id="bVYxe_pStq7JfoqcZvOK-44" value="" style="endArrow=classic;html=1;rounded=0;fontSize=12;startSize=8;endSize=8;curved=1;entryX=-0.01;entryY=0.093;entryDx=0;entryDy=0;entryPerimeter=0;" edge="1" parent="1" source="bVYxe_pStq7JfoqcZvOK-43" target="bVYxe_pStq7JfoqcZvOK-49">
          <mxGeometry width="50" height="50" relative="1" as="geometry">
            <mxPoint x="-552.5033333333332" y="-20" as="sourcePoint" />
            <mxPoint x="-428.67" y="-20" as="targetPoint" />
          </mxGeometry>
        </mxCell>
        <mxCell id="bVYxe_pStq7JfoqcZvOK-49" value="Manage Appointments" style="swimlane;fontStyle=0;childLayout=stackLayout;horizontal=1;startSize=30;horizontalStack=0;resizeParent=1;resizeParentMax=0;resizeLast=0;collapsible=1;marginBottom=0;whiteSpace=wrap;html=1;fillColor=#f8cecc;strokeColor=#b85450;" vertex="1" parent="1">
          <mxGeometry x="-400" y="-50" width="160" height="120" as="geometry">
            <mxRectangle x="-440" y="141" width="160" height="30" as="alternateBounds" />
          </mxGeometry>
        </mxCell>
        <mxCell id="bVYxe_pStq7JfoqcZvOK-50" value="Schedule Appt" style="text;strokeColor=none;fillColor=none;align=left;verticalAlign=middle;spacingLeft=4;spacingRight=4;overflow=hidden;points=[[0,0.5],[1,0.5]];portConstraint=eastwest;rotatable=0;whiteSpace=wrap;html=1;" vertex="1" parent="bVYxe_pStq7JfoqcZvOK-49">
          <mxGeometry y="30" width="160" height="30" as="geometry" />
        </mxCell>
        <mxCell id="bVYxe_pStq7JfoqcZvOK-51" value="View Appt" style="text;strokeColor=none;fillColor=none;align=left;verticalAlign=middle;spacingLeft=4;spacingRight=4;overflow=hidden;points=[[0,0.5],[1,0.5]];portConstraint=eastwest;rotatable=0;whiteSpace=wrap;html=1;" vertex="1" parent="bVYxe_pStq7JfoqcZvOK-49">
          <mxGeometry y="60" width="160" height="30" as="geometry" />
        </mxCell>
        <mxCell id="bVYxe_pStq7JfoqcZvOK-52" value="Cancel Appt" style="text;strokeColor=none;fillColor=none;align=left;verticalAlign=middle;spacingLeft=4;spacingRight=4;overflow=hidden;points=[[0,0.5],[1,0.5]];portConstraint=eastwest;rotatable=0;whiteSpace=wrap;html=1;" vertex="1" parent="bVYxe_pStq7JfoqcZvOK-49">
          <mxGeometry y="90" width="160" height="30" as="geometry" />
        </mxCell>
        <mxCell id="bVYxe_pStq7JfoqcZvOK-57" value="Select" style="swimlane;fontStyle=0;childLayout=stackLayout;horizontal=1;startSize=30;horizontalStack=0;resizeParent=1;resizeParentMax=0;resizeLast=0;collapsible=1;marginBottom=0;whiteSpace=wrap;html=1;" vertex="1" parent="1">
          <mxGeometry x="200" y="-440" width="140" height="90" as="geometry" />
        </mxCell>
        <mxCell id="bVYxe_pStq7JfoqcZvOK-58" value="General Check-up" style="text;strokeColor=none;fillColor=none;align=left;verticalAlign=middle;spacingLeft=4;spacingRight=4;overflow=hidden;points=[[0,0.5],[1,0.5]];portConstraint=eastwest;rotatable=0;whiteSpace=wrap;html=1;" vertex="1" parent="bVYxe_pStq7JfoqcZvOK-57">
          <mxGeometry y="30" width="140" height="30" as="geometry" />
        </mxCell>
        <mxCell id="bVYxe_pStq7JfoqcZvOK-59" value="Others(Specify)" style="text;strokeColor=none;fillColor=none;align=left;verticalAlign=middle;spacingLeft=4;spacingRight=4;overflow=hidden;points=[[0,0.5],[1,0.5]];portConstraint=eastwest;rotatable=0;whiteSpace=wrap;html=1;" vertex="1" parent="bVYxe_pStq7JfoqcZvOK-57">
          <mxGeometry y="60" width="140" height="30" as="geometry" />
        </mxCell>
        <mxCell id="bVYxe_pStq7JfoqcZvOK-66" value="S.Appt" style="swimlane;fontStyle=0;childLayout=stackLayout;horizontal=1;startSize=30;horizontalStack=0;resizeParent=1;resizeParentMax=0;resizeLast=0;collapsible=1;marginBottom=0;whiteSpace=wrap;html=1;fillColor=#d5e8d4;strokeColor=#82b366;" vertex="1" parent="1">
          <mxGeometry x="-60" y="-330" width="140" height="210" as="geometry" />
        </mxCell>
        <mxCell id="bVYxe_pStq7JfoqcZvOK-67" value="Personal Info" style="text;strokeColor=none;fillColor=none;align=left;verticalAlign=middle;spacingLeft=4;spacingRight=4;overflow=hidden;points=[[0,0.5],[1,0.5]];portConstraint=eastwest;rotatable=0;whiteSpace=wrap;html=1;" vertex="1" parent="bVYxe_pStq7JfoqcZvOK-66">
          <mxGeometry y="30" width="140" height="30" as="geometry" />
        </mxCell>
        <mxCell id="bVYxe_pStq7JfoqcZvOK-68" value="Symptoms" style="text;strokeColor=none;fillColor=none;align=left;verticalAlign=middle;spacingLeft=4;spacingRight=4;overflow=hidden;points=[[0,0.5],[1,0.5]];portConstraint=eastwest;rotatable=0;whiteSpace=wrap;html=1;" vertex="1" parent="bVYxe_pStq7JfoqcZvOK-66">
          <mxGeometry y="60" width="140" height="30" as="geometry" />
        </mxCell>
        <mxCell id="bVYxe_pStq7JfoqcZvOK-69" value="Nature of Visit" style="text;strokeColor=none;fillColor=none;align=left;verticalAlign=middle;spacingLeft=4;spacingRight=4;overflow=hidden;points=[[0,0.5],[1,0.5]];portConstraint=eastwest;rotatable=0;whiteSpace=wrap;html=1;" vertex="1" parent="bVYxe_pStq7JfoqcZvOK-66">
          <mxGeometry y="90" width="140" height="30" as="geometry" />
        </mxCell>
        <mxCell id="bVYxe_pStq7JfoqcZvOK-75" value="Preferred Date &amp;amp; Time" style="text;strokeColor=none;fillColor=none;align=left;verticalAlign=middle;spacingLeft=4;spacingRight=4;overflow=hidden;points=[[0,0.5],[1,0.5]];portConstraint=eastwest;rotatable=0;whiteSpace=wrap;html=1;" vertex="1" parent="bVYxe_pStq7JfoqcZvOK-66">
          <mxGeometry y="120" width="140" height="30" as="geometry" />
        </mxCell>
        <mxCell id="bVYxe_pStq7JfoqcZvOK-76" value="Department" style="text;strokeColor=none;fillColor=none;align=left;verticalAlign=middle;spacingLeft=4;spacingRight=4;overflow=hidden;points=[[0,0.5],[1,0.5]];portConstraint=eastwest;rotatable=0;whiteSpace=wrap;html=1;" vertex="1" parent="bVYxe_pStq7JfoqcZvOK-66">
          <mxGeometry y="150" width="140" height="30" as="geometry" />
        </mxCell>
        <mxCell id="bVYxe_pStq7JfoqcZvOK-84" value="Status" style="text;strokeColor=none;fillColor=none;align=left;verticalAlign=middle;spacingLeft=4;spacingRight=4;overflow=hidden;points=[[0,0.5],[1,0.5]];portConstraint=eastwest;rotatable=0;whiteSpace=wrap;html=1;" vertex="1" parent="bVYxe_pStq7JfoqcZvOK-66">
          <mxGeometry y="180" width="140" height="30" as="geometry" />
        </mxCell>
        <mxCell id="bVYxe_pStq7JfoqcZvOK-73" value="" style="endArrow=classic;startArrow=classic;html=1;rounded=0;fontSize=12;startSize=8;endSize=8;curved=1;entryX=0.002;entryY=0.164;entryDx=0;entryDy=0;entryPerimeter=0;exitX=1;exitY=0.5;exitDx=0;exitDy=0;" edge="1" parent="1" source="bVYxe_pStq7JfoqcZvOK-50" target="bVYxe_pStq7JfoqcZvOK-66">
          <mxGeometry width="50" height="50" relative="1" as="geometry">
            <mxPoint x="-310" as="sourcePoint" />
            <mxPoint x="-260" y="-50" as="targetPoint" />
            <Array as="points">
              <mxPoint x="-170" y="-20" />
              <mxPoint x="-130" y="-180" />
            </Array>
          </mxGeometry>
        </mxCell>
        <mxCell id="bVYxe_pStq7JfoqcZvOK-79" value="Select" style="swimlane;fontStyle=0;childLayout=stackLayout;horizontal=1;startSize=30;horizontalStack=0;resizeParent=1;resizeParentMax=0;resizeLast=0;collapsible=1;marginBottom=0;whiteSpace=wrap;html=1;" vertex="1" parent="1">
          <mxGeometry x="200" y="-330" width="140" height="90" as="geometry" />
        </mxCell>
        <mxCell id="bVYxe_pStq7JfoqcZvOK-80" value="Dept Name" style="text;strokeColor=none;fillColor=none;align=left;verticalAlign=middle;spacingLeft=4;spacingRight=4;overflow=hidden;points=[[0,0.5],[1,0.5]];portConstraint=eastwest;rotatable=0;whiteSpace=wrap;html=1;" vertex="1" parent="bVYxe_pStq7JfoqcZvOK-79">
          <mxGeometry y="30" width="140" height="30" as="geometry" />
        </mxCell>
        <mxCell id="bVYxe_pStq7JfoqcZvOK-81" value="Doctor" style="text;strokeColor=none;fillColor=none;align=left;verticalAlign=middle;spacingLeft=4;spacingRight=4;overflow=hidden;points=[[0,0.5],[1,0.5]];portConstraint=eastwest;rotatable=0;whiteSpace=wrap;html=1;" vertex="1" parent="bVYxe_pStq7JfoqcZvOK-79">
          <mxGeometry y="60" width="140" height="30" as="geometry" />
        </mxCell>
        <mxCell id="bVYxe_pStq7JfoqcZvOK-83" value="" style="endArrow=classic;startArrow=classic;html=1;rounded=0;fontSize=12;startSize=8;endSize=8;curved=1;exitX=1;exitY=0.5;exitDx=0;exitDy=0;entryX=-0.019;entryY=0.125;entryDx=0;entryDy=0;entryPerimeter=0;" edge="1" parent="1" target="bVYxe_pStq7JfoqcZvOK-85">
          <mxGeometry width="50" height="50" relative="1" as="geometry">
            <mxPoint x="-240" y="29.999999999999886" as="sourcePoint" />
            <mxPoint x="-70" y="10" as="targetPoint" />
            <Array as="points">
              <mxPoint x="-190" y="40" />
              <mxPoint x="-140" y="40" />
              <mxPoint x="-110" />
            </Array>
          </mxGeometry>
        </mxCell>
        <mxCell id="bVYxe_pStq7JfoqcZvOK-85" value="V.Appt" style="swimlane;fontStyle=0;childLayout=stackLayout;horizontal=1;startSize=30;horizontalStack=0;resizeParent=1;resizeParentMax=0;resizeLast=0;collapsible=1;marginBottom=0;whiteSpace=wrap;html=1;fillColor=#d5e8d4;strokeColor=#82b366;" vertex="1" parent="1">
          <mxGeometry x="-60" y="-50" width="140" height="120" as="geometry" />
        </mxCell>
        <mxCell id="bVYxe_pStq7JfoqcZvOK-86" value="Doc name" style="text;strokeColor=none;fillColor=none;align=left;verticalAlign=middle;spacingLeft=4;spacingRight=4;overflow=hidden;points=[[0,0.5],[1,0.5]];portConstraint=eastwest;rotatable=0;whiteSpace=wrap;html=1;" vertex="1" parent="bVYxe_pStq7JfoqcZvOK-85">
          <mxGeometry y="30" width="140" height="30" as="geometry" />
        </mxCell>
        <mxCell id="bVYxe_pStq7JfoqcZvOK-87" value="Date" style="text;strokeColor=none;fillColor=none;align=left;verticalAlign=middle;spacingLeft=4;spacingRight=4;overflow=hidden;points=[[0,0.5],[1,0.5]];portConstraint=eastwest;rotatable=0;whiteSpace=wrap;html=1;" vertex="1" parent="bVYxe_pStq7JfoqcZvOK-85">
          <mxGeometry y="60" width="140" height="30" as="geometry" />
        </mxCell>
        <mxCell id="bVYxe_pStq7JfoqcZvOK-88" value="Status" style="text;strokeColor=none;fillColor=none;align=left;verticalAlign=middle;spacingLeft=4;spacingRight=4;overflow=hidden;points=[[0,0.5],[1,0.5]];portConstraint=eastwest;rotatable=0;whiteSpace=wrap;html=1;" vertex="1" parent="bVYxe_pStq7JfoqcZvOK-85">
          <mxGeometry y="90" width="140" height="30" as="geometry" />
        </mxCell>
        <mxCell id="bVYxe_pStq7JfoqcZvOK-89" value="Select" style="swimlane;fontStyle=0;childLayout=stackLayout;horizontal=1;startSize=30;horizontalStack=0;resizeParent=1;resizeParentMax=0;resizeLast=0;collapsible=1;marginBottom=0;whiteSpace=wrap;html=1;" vertex="1" parent="1">
          <mxGeometry x="200" y="-220" width="140" height="90" as="geometry" />
        </mxCell>
        <mxCell id="bVYxe_pStq7JfoqcZvOK-90" value="Confirm" style="text;strokeColor=none;fillColor=none;align=left;verticalAlign=middle;spacingLeft=4;spacingRight=4;overflow=hidden;points=[[0,0.5],[1,0.5]];portConstraint=eastwest;rotatable=0;whiteSpace=wrap;html=1;" vertex="1" parent="bVYxe_pStq7JfoqcZvOK-89">
          <mxGeometry y="30" width="140" height="30" as="geometry" />
        </mxCell>
        <mxCell id="bVYxe_pStq7JfoqcZvOK-91" value="Cancel" style="text;strokeColor=none;fillColor=none;align=left;verticalAlign=middle;spacingLeft=4;spacingRight=4;overflow=hidden;points=[[0,0.5],[1,0.5]];portConstraint=eastwest;rotatable=0;whiteSpace=wrap;html=1;" vertex="1" parent="bVYxe_pStq7JfoqcZvOK-89">
          <mxGeometry y="60" width="140" height="30" as="geometry" />
        </mxCell>
        <mxCell id="bVYxe_pStq7JfoqcZvOK-96" value="Select" style="swimlane;fontStyle=0;childLayout=stackLayout;horizontal=1;startSize=30;horizontalStack=0;resizeParent=1;resizeParentMax=0;resizeLast=0;collapsible=1;marginBottom=0;whiteSpace=wrap;html=1;" vertex="1" parent="1">
          <mxGeometry x="200" y="-35" width="140" height="90" as="geometry" />
        </mxCell>
        <mxCell id="bVYxe_pStq7JfoqcZvOK-97" value="Confirm" style="text;strokeColor=none;fillColor=none;align=left;verticalAlign=middle;spacingLeft=4;spacingRight=4;overflow=hidden;points=[[0,0.5],[1,0.5]];portConstraint=eastwest;rotatable=0;whiteSpace=wrap;html=1;" vertex="1" parent="bVYxe_pStq7JfoqcZvOK-96">
          <mxGeometry y="30" width="140" height="30" as="geometry" />
        </mxCell>
        <mxCell id="bVYxe_pStq7JfoqcZvOK-98" value="Cancel" style="text;strokeColor=none;fillColor=none;align=left;verticalAlign=middle;spacingLeft=4;spacingRight=4;overflow=hidden;points=[[0,0.5],[1,0.5]];portConstraint=eastwest;rotatable=0;whiteSpace=wrap;html=1;" vertex="1" parent="bVYxe_pStq7JfoqcZvOK-96">
          <mxGeometry y="60" width="140" height="30" as="geometry" />
        </mxCell>
        <mxCell id="bVYxe_pStq7JfoqcZvOK-99" value="" style="endArrow=classic;html=1;rounded=0;fontSize=12;startSize=8;endSize=8;curved=1;entryX=0;entryY=0.25;entryDx=0;entryDy=0;exitX=1;exitY=0.5;exitDx=0;exitDy=0;" edge="1" parent="1" source="bVYxe_pStq7JfoqcZvOK-88" target="bVYxe_pStq7JfoqcZvOK-96">
          <mxGeometry width="50" height="50" relative="1" as="geometry">
            <mxPoint x="80" y="80" as="sourcePoint" />
            <mxPoint x="130" y="30" as="targetPoint" />
          </mxGeometry>
        </mxCell>
        <mxCell id="bVYxe_pStq7JfoqcZvOK-100" value="" style="endArrow=classic;html=1;rounded=0;fontSize=12;startSize=8;endSize=8;curved=1;entryX=0;entryY=0.25;entryDx=0;entryDy=0;exitX=1;exitY=0.5;exitDx=0;exitDy=0;" edge="1" parent="1" source="bVYxe_pStq7JfoqcZvOK-69" target="bVYxe_pStq7JfoqcZvOK-57">
          <mxGeometry width="50" height="50" relative="1" as="geometry">
            <mxPoint x="80" y="-140" as="sourcePoint" />
            <mxPoint x="130" y="-190" as="targetPoint" />
          </mxGeometry>
        </mxCell>
        <mxCell id="bVYxe_pStq7JfoqcZvOK-101" value="" style="endArrow=classic;html=1;rounded=0;fontSize=12;startSize=8;endSize=8;curved=1;entryX=0;entryY=0.25;entryDx=0;entryDy=0;exitX=1;exitY=0.5;exitDx=0;exitDy=0;" edge="1" parent="1" source="bVYxe_pStq7JfoqcZvOK-76" target="bVYxe_pStq7JfoqcZvOK-79">
          <mxGeometry width="50" height="50" relative="1" as="geometry">
            <mxPoint x="80" y="-83" as="sourcePoint" />
            <mxPoint x="200" y="-260" as="targetPoint" />
          </mxGeometry>
        </mxCell>
        <mxCell id="bVYxe_pStq7JfoqcZvOK-102" value="" style="endArrow=classic;html=1;rounded=0;fontSize=12;startSize=8;endSize=8;curved=1;entryX=0.01;entryY=0.162;entryDx=0;entryDy=0;exitX=0.993;exitY=0.292;exitDx=0;exitDy=0;entryPerimeter=0;exitPerimeter=0;" edge="1" parent="1" source="bVYxe_pStq7JfoqcZvOK-84" target="bVYxe_pStq7JfoqcZvOK-89">
          <mxGeometry width="50" height="50" relative="1" as="geometry">
            <mxPoint x="80" y="-49" as="sourcePoint" />
            <mxPoint x="200" y="-101" as="targetPoint" />
          </mxGeometry>
        </mxCell>
        <mxCell id="bVYxe_pStq7JfoqcZvOK-103" value="" style="rounded=1;whiteSpace=wrap;html=1;fillColor=none;strokeWidth=5;glass=0;strokeColor=light-dark(#000000,#FF0000);" vertex="1" parent="1">
          <mxGeometry x="-120" y="-460" width="560" height="370" as="geometry" />
        </mxCell>
        <mxCell id="bVYxe_pStq7JfoqcZvOK-104" value="" style="rounded=1;whiteSpace=wrap;html=1;fillColor=none;strokeColor=light-dark(#000000,#0000FF);strokeWidth=5;" vertex="1" parent="1">
          <mxGeometry x="-120" y="-65" width="560" height="150" as="geometry" />
        </mxCell>
        <mxCell id="bVYxe_pStq7JfoqcZvOK-105" value="View Medical Records" style="swimlane;fontStyle=0;childLayout=stackLayout;horizontal=1;startSize=30;horizontalStack=0;resizeParent=1;resizeParentMax=0;resizeLast=0;collapsible=1;marginBottom=0;whiteSpace=wrap;html=1;fillColor=#f8cecc;strokeColor=#b85450;" vertex="1" parent="1">
          <mxGeometry x="-400" y="100" width="160" height="150" as="geometry">
            <mxRectangle x="-440" y="141" width="160" height="30" as="alternateBounds" />
          </mxGeometry>
        </mxCell>
        <mxCell id="bVYxe_pStq7JfoqcZvOK-106" value="Date of Appt" style="text;strokeColor=none;fillColor=none;align=left;verticalAlign=middle;spacingLeft=4;spacingRight=4;overflow=hidden;points=[[0,0.5],[1,0.5]];portConstraint=eastwest;rotatable=0;whiteSpace=wrap;html=1;" vertex="1" parent="bVYxe_pStq7JfoqcZvOK-105">
          <mxGeometry y="30" width="160" height="30" as="geometry" />
        </mxCell>
        <mxCell id="bVYxe_pStq7JfoqcZvOK-108" value="Doctor Name" style="text;strokeColor=none;fillColor=none;align=left;verticalAlign=middle;spacingLeft=4;spacingRight=4;overflow=hidden;points=[[0,0.5],[1,0.5]];portConstraint=eastwest;rotatable=0;whiteSpace=wrap;html=1;" vertex="1" parent="bVYxe_pStq7JfoqcZvOK-105">
          <mxGeometry y="60" width="160" height="30" as="geometry" />
        </mxCell>
        <mxCell id="bVYxe_pStq7JfoqcZvOK-107" value="Diagnosis" style="text;strokeColor=none;fillColor=none;align=left;verticalAlign=middle;spacingLeft=4;spacingRight=4;overflow=hidden;points=[[0,0.5],[1,0.5]];portConstraint=eastwest;rotatable=0;whiteSpace=wrap;html=1;" vertex="1" parent="bVYxe_pStq7JfoqcZvOK-105">
          <mxGeometry y="90" width="160" height="30" as="geometry" />
        </mxCell>
        <mxCell id="bVYxe_pStq7JfoqcZvOK-110" value="Prescription" style="text;strokeColor=none;fillColor=none;align=left;verticalAlign=middle;spacingLeft=4;spacingRight=4;overflow=hidden;points=[[0,0.5],[1,0.5]];portConstraint=eastwest;rotatable=0;whiteSpace=wrap;html=1;" vertex="1" parent="bVYxe_pStq7JfoqcZvOK-105">
          <mxGeometry y="120" width="160" height="30" as="geometry" />
        </mxCell>
        <mxCell id="bVYxe_pStq7JfoqcZvOK-109" value="" style="endArrow=classic;html=1;rounded=0;fontSize=12;startSize=8;endSize=8;curved=1;entryX=0.001;entryY=0.159;entryDx=0;entryDy=0;entryPerimeter=0;" edge="1" parent="1" source="bVYxe_pStq7JfoqcZvOK-43" target="bVYxe_pStq7JfoqcZvOK-105">
          <mxGeometry width="50" height="50" relative="1" as="geometry">
            <mxPoint x="-555" y="120" as="sourcePoint" />
            <mxPoint x="-400" y="120" as="targetPoint" />
          </mxGeometry>
        </mxCell>
        <mxCell id="bVYxe_pStq7JfoqcZvOK-115" value="TABLES" style="swimlane;fontStyle=0;childLayout=stackLayout;horizontal=1;startSize=30;horizontalStack=0;resizeParent=1;resizeParentMax=0;resizeLast=0;collapsible=1;marginBottom=0;whiteSpace=wrap;html=1;fillColor=#a0522d;fontColor=#ffffff;strokeColor=#6D1F00;" vertex="1" parent="1">
          <mxGeometry x="-950" y="20" width="250" height="120" as="geometry" />
        </mxCell>
        <mxCell id="bVYxe_pStq7JfoqcZvOK-116" value="Patient" style="text;strokeColor=none;fillColor=none;align=left;verticalAlign=middle;spacingLeft=4;spacingRight=4;overflow=hidden;points=[[0,0.5],[1,0.5]];portConstraint=eastwest;rotatable=0;whiteSpace=wrap;html=1;" vertex="1" parent="bVYxe_pStq7JfoqcZvOK-115">
          <mxGeometry y="30" width="250" height="30" as="geometry" />
        </mxCell>
        <mxCell id="bVYxe_pStq7JfoqcZvOK-117" value="Appointment" style="text;strokeColor=none;fillColor=none;align=left;verticalAlign=middle;spacingLeft=4;spacingRight=4;overflow=hidden;points=[[0,0.5],[1,0.5]];portConstraint=eastwest;rotatable=0;whiteSpace=wrap;html=1;" vertex="1" parent="bVYxe_pStq7JfoqcZvOK-115">
          <mxGeometry y="60" width="250" height="30" as="geometry" />
        </mxCell>
        <mxCell id="bVYxe_pStq7JfoqcZvOK-118" value="Medical Record" style="text;strokeColor=none;fillColor=none;align=left;verticalAlign=middle;spacingLeft=4;spacingRight=4;overflow=hidden;points=[[0,0.5],[1,0.5]];portConstraint=eastwest;rotatable=0;whiteSpace=wrap;html=1;" vertex="1" parent="bVYxe_pStq7JfoqcZvOK-115">
          <mxGeometry y="90" width="250" height="30" as="geometry" />
        </mxCell>
      </root>
    </mxGraphModel>
  </diagram>
</mxfile>
